<svg
        viewBox="0 0 140 140"
        version="1.1"
        color="white"
        xml:space="preserve"
        xmlns="http://www.w3.org/2000/svg">
    <g transform="translate(-43.54874,-21.847865)">
        <path
                id="path"
                fill="currentColor"
                stroke="currentColor"
                stroke-width="0"
                fill-opacity="1"
                fill-rule="nonzero"
                d="m 144.76532,33.988623 c -1.1296,7.57e-4 -2.26727,0.216024 -3.19567,0.665592 -3.47874,1.684583 -4.02091,5.19365 -4.02091,5.19365 H 98.482228 c -29.9338,0 -44.933488,26.996554 -44.933488,51.999999 0,24.999996 19.999981,54.999996 44.999999,54.999996 h 27.000001 c 1.50572,3.2073 4.00204,3.95745 7.63745,3.91711 5.83606,-0.3381 9.58953,-6.35658 7.25537,-11.6334 -1.73827,-3.92965 -6.54401,-6.06294 -10.0614,-4.46639 -2.82322,1.28137 -4.83142,3.18268 -5.05241,7.18268 h -3.77901 c 0,0 0.003,-9 -10.04133,-9 H 98.548739 c -13.65296,0 -30.434864,-20.99998 -30.434864,-40.999976 0,-10 3.3581,-33.872568 26.827617,-38.743095 0.635393,0.712554 -22.451085,8.298263 -22.451085,38.645912 0,10.097159 8.173953,38.097149 34.058333,38.097159 l 42,2e-5 c 0.39398,8.02971 14.99421,10.58188 15.58233,-0.13433 0.36868,-3.67736 -2.36538,-6.98079 -5.66322,-8.37313 -4.91911,-1.49256 -7.91911,1.50744 -9.38183,3.50744 h -4.53728 l 17,-17 c 2.65906,2.09796 6.1675,2.74212 7.88175,1.74343 9.80619,-5.7128 2.19651,-15.137574 -3.22306,-15.137574 -2.47982,0 -6.08982,1.82765 -7.49309,4.335136 l -10.1656,0.05903 c -10,0 -19,2.999978 -19,16.999998 h -23 c -8.000001,0 -19.522527,-9.00002 -19.522527,-23.999998 0,-20.000018 16.522527,-29.058355 19.522527,-29.058352 l 17,1.8e-5 c 6.27351,0.291316 9.31914,5.169458 11,9.058316 -1,4 3.63201,11.351828 11.4563,8.115777 2.95938,-1.602701 4.55873,-4.538509 4.35839,-7.999512 -0.19159,-3.309924 -1.81978,-5.680452 -4.92786,-7.174239 -4.6145,-2.217765 -8.17572,1.315047 -8.88683,2.057974 -2.22572,-4.658828 -7.62818,-9.078436 -13,-9.098372 l -17,0.04004 c -3,0.0071 -24.587501,9.058332 -24.587501,34.058334 0,14.999994 11.5875,28.839364 24.587501,28.866234 l 27,0.0558 c 0,-13.92204 3,-17.92204 15,-17.92204 h 10 c 0.18599,0.89576 0.39212,1.05082 0.54583,1.48628 l -20.54583,20.51372 h -32 c -18.000001,0 -29.178826,-18 -29.058334,-33.09891 0.219423,-27.49608 23.037184,-37.669487 29.025574,-37.977038 l 17.03276,-0.08268 c 5,0.158633 7,1.158632 12,6.158632 h 16 c 0.86166,1.931846 2.19267,3.873251 4.03711,4.876357 3.57028,1.673156 11.37554,0.03407 11.37554,-7.841382 0,-5.712355 -4.22686,-7.347257 -5.36919,-7.684802 -7.00168,-2.068926 -9.14667,3.718717 -10.04346,5.649827 h -15 c -5,-4.999999 -8,-5.999999 -13,-5.980102 l -25.000001,-0.0199 C 73.54874,48.827962 62.355303,72.813054 62.696581,91.847861 63.144809,116.84786 83.548739,137.84787 98.450234,137.84786 h 13.098506 c 5,0 5,4 5,4 H 98.548739 c -18.693333,0 -40.078681,-24 -39.999999,-49.999996 -0.08096,-25.723363 15,-46.946749 39.999999,-46.946749 l 39.000001,-0.05325 c 3.13314,6.098627 8.01825,5.445843 10.30425,4.415794 5.89076,-2.654289 6.64471,-11.653405 0.0605,-14.652852 -0.89674,-0.409128 -2.01851,-0.622184 -3.14813,-0.622184 z m -0.0176,5.056022 c 2.28843,0.02535 4.2473,2.919442 1.98645,4.93975 -1.21343,1.084288 -2.6837,1.018915 -3.8747,-0.172083 -2.1131,-2.113094 -0.0537,-4.789077 1.88825,-4.767667 z m 13.95884,15.066781 c 1.63583,-0.09476 3.12923,0.987721 3.36155,2.961059 0,0.825385 -1.67011,4.238619 -4.34082,2.845821 -2.06589,-1.077369 -2.36731,-3.494542 -0.66249,-5.309236 0.53556,-0.303863 1.09649,-0.466059 1.64176,-0.497644 z m -16.75711,15.150496 c 1.38537,-0.137854 2.98364,0.82714 3.44888,3.645772 -0.29425,2.123558 -2.29759,3.417764 -4.22455,2.606043 -2.4076,-1.044268 -2.14862,-3.847993 -1.19734,-4.97489 0.38752,-0.714682 1.14178,-1.194212 1.97301,-1.276925 z m 23.79958,30.255518 c 0.80736,-0.03476 1.66123,0.347643 2.37143,1.15652 2.69526,3.06974 -0.64474,5.81152 -3.03703,4.77645 -1.79962,-0.77864 -2.45829,-2.89479 -1.4273,-4.58577 0.52466,-0.86049 1.28553,-1.312438 2.0929,-1.3472 z m -9.76013,26.5684 c 1.56713,-0.0781 3.1688,0.88273 3.1688,3.34605 0,3.92607 -4.13601,3.4353 -5.56452,1.12397 -1.57695,-2.55154 0.38084,-4.36957 2.39572,-4.47002 z m -22.87251,13.26121 c 3.37941,-0.17034 3.77545,4.26401 1.66863,5.7397 -1.30618,0.71848 -2.77615,0.55589 -3.8318,-0.46819 -2.04993,-2.04993 -0.37089,-5.14368 2.16317,-5.27151 z" />
    </g>
</svg>
