<?xml version="1.0" encoding="UTF-8" standalone="no"?>
<svg
   viewBox="0 0 140 140"
   version="1.1"
   color="currentColor"
   xml:space="preserve"
   xmlns="http://www.w3.org/2000/svg">
    <defs
     id="defs1"><filter
       style="color-interpolation-filters:sRGB"
       id="filter8"
       x="-0.10095921"
       y="-0.10387392"
       width="1.2019184"
       height="1.2077478"><feMorphology
         result="result1"
         in="SourceAlpha"
         operator="dilate"
         radius="3.6"
         id="feMorphology7" /><feGaussianBlur
         stdDeviation="3.6"
         in="result1"
         result="result0"
         id="feGaussianBlur7" /><feDiffuseLighting
         surfaceScale="-5"
         id="feDiffuseLighting7"><feDistantLight
           elevation="45"
           azimuth="225"
           id="feDistantLight7" /></feDiffuseLighting><feComposite
         in2="result0"
         operator="in"
         result="result91"
         id="feComposite7" /><feComposite
         in="SourceGraphic"
         in2="result91"
         id="feComposite8" /></filter><filter
       style="color-interpolation-filters:sRGB;"
       id="filter58"
       x="0"
       y="0"
       width="1.0494898"
       height="1.0509186"><feFlood
         result="flood"
         in="SourceGraphic"
         flood-opacity="0.552941"
         flood-color="rgb(96,0,213)"
         id="feFlood57" /><feGaussianBlur
         result="blur"
         in="SourceGraphic"
         stdDeviation="0.000000"
         id="feGaussianBlur57" /><feOffset
         result="offset"
         in="blur"
         dx="3.000000"
         dy="3.000000"
         id="feOffset57" /><feComposite
         result="comp1"
         operator="in"
         in="flood"
         in2="offset"
         id="feComposite57" /><feComposite
         result="fbSourceGraphic"
         operator="over"
         in="SourceGraphic"
         in2="comp1"
         id="feComposite58" /><feColorMatrix
         result="fbSourceGraphicAlpha"
         in="fbSourceGraphic"
         values="0 0 0 -1 0 0 0 0 -1 0 0 0 0 -1 0 0 0 0 1 0"
         id="feColorMatrix58" /><feFlood
         id="feFlood58"
         result="flood"
         in="fbSourceGraphic"
         flood-opacity="0.552941"
         flood-color="rgb(96,0,213)" /><feGaussianBlur
         id="feGaussianBlur58"
         result="blur"
         in="fbSourceGraphic"
         stdDeviation="0.000000" /><feOffset
         id="feOffset58"
         result="offset"
         in="blur"
         dx="3.000000"
         dy="3.000000" /><feComposite
         id="feComposite59"
         result="comp1"
         operator="in"
         in="flood"
         in2="offset" /><feComposite
         id="feComposite60"
         result="comp2"
         operator="over"
         in="fbSourceGraphic"
         in2="comp1" /></filter></defs><g
     id="layer1"
     transform="translate(-43.54874,-21.847865)"><g
       id="g5"><path
         id="path5"
         style="display:inline;fill:#ffffff;fill-rule:nonzero;stroke:currentColor;stroke-width:0;fill-opacity:1"
         d="m 144.76532,32.93029 c -1.1296,7.57e-4 -2.26727,0.216024 -3.19567,0.665592 -3.47874,1.684583 -3.26994,4.327884 -4.85655,4.335136 L 98.482228,38.105773 C 68.54874,38.2426 53.13371,66.844419 53.13371,91.847864 c 0,24.999996 20.415018,54.719756 45.415029,54.739106 l 27.000001,0.0209 c 1.50572,3.2073 4.00204,4.19744 7.63745,4.1571 5.83606,-0.3381 9.58953,-6.35658 7.25537,-11.6334 -1.73827,-3.92965 -6.54401,-6.06294 -10.0614,-4.46639 -2.82322,1.28137 -4.4884,4.56813 -5.05241,6.61446 l -3.77901,0.024 c 0,0 0.003,-8.22082 -10.04133,-8.22079 l -12.958671,3e-5 c -13.65296,3e-5 -30.434864,-21.235 -30.434864,-41.234996 0,-10 5.394093,-33 26.827617,-38.743095 0.675075,0.675078 -22.47668,8.302566 -21.965635,38.645912 0.254268,15.097179 10.572882,38.431599 36.518873,38.298109 l 39.05401,-0.20093 c 0.39398,8.02971 14.99421,10.58188 15.58233,-0.13433 0.36868,-3.67736 -2.36538,-6.98079 -5.66322,-8.37313 -4.24129,-1.44513 -7.58803,0.65152 -9.38183,4.16885 l -5.51462,-0.0126 16.97734,-17.64879 c 2.65906,2.09796 7.1675,2.7421 8.88175,1.74341 9.80619,-5.7128 2.19651,-15.137574 -3.22306,-15.137574 -2.47982,0 -6.08982,1.82765 -7.49309,4.335136 l -13.1656,0.05903 c 0,2e-6 -7.07914,16.999998 -27,16.999998 h -5 c -15.000001,0 -24.935027,-9 -24.935027,-23.999998 0.181421,-21.50826 13.843087,-28.067083 24.814677,-28.02135 l 5.12035,0.02135 c 5.8724,0.02449 9.07752,2.248332 15.3666,8.53741 -0.30791,3.219517 4.26541,10.8144 12.0897,7.578349 2.95938,-1.602701 4.55873,-4.538509 4.35839,-7.999512 -0.19159,-3.309924 -1.81978,-5.680452 -4.92786,-7.174239 -4.6145,-2.217765 -8.3917,1.37529 -9.10281,2.118217 -3.67291,-3.672935 -9.23533,-7.639003 -16.39951,-8.100281 l -6.28428,-0.110823 C 90.79078,58.293881 82.649461,79.063719 82.991592,91.847864 83.194328,99.423392 86.270126,120.41213 113.5143,120.7141 l 5.03444,0.0558 c -0.5204,-0.006 19,1.13052 30,-17.92204 h 10 l -22,22.56271 -26.9947,-0.1303 C 90.64399,125.18899 79.769684,109.56393 78.768026,91.74895 78.058999,64.261137 100.52759,54.079463 106.51598,53.771912 c 4.51222,-0.274721 9.03117,-0.139328 13.54749,-0.08268 9.69704,0.14518 12.21893,4.984476 15.66416,6.400643 l 15.46831,0.100256 c 0.86166,1.931846 2.54547,3.530984 4.38991,4.53409 3.57028,1.673156 11.37554,0.03407 11.37554,-7.841382 0,-5.712355 -4.22686,-7.347257 -5.36919,-7.684802 -7.00168,-2.068926 -9.7191,3.485096 -10.61589,5.416206 l -14.56862,-0.183966 c -5.17436,-3.464073 -8.12817,-5.496444 -12.85895,-5.562515 L 98.609369,48.519454 c -21.179008,-0.29579 -36.254066,24.2936 -35.912788,43.328407 0.448228,24.999999 20.852158,46.000009 35.753653,45.999999 h 13.098506 c 5,0 5,3.49627 5,3.49627 l -18.000001,-0.0132 C 79.855411,141.31726 58.54874,117.84786 58.627422,91.847864 58.546463,66.124501 77.548739,43.842782 98.548739,43.842782 L 137.2495,43.521375 c 3.13314,6.098627 8.31749,5.714 10.60349,4.683951 5.89076,-2.654289 6.64471,-11.653405 0.0605,-14.652852 -0.89674,-0.409128 -2.01851,-0.622941 -3.14813,-0.622184 z m -0.0176,5.056022 c 2.28843,0.02535 4.2473,2.919442 1.98645,4.93975 -1.21343,1.084288 -2.6837,1.018915 -3.8747,-0.172083 -2.1131,-2.113094 -0.0537,-4.789077 1.88825,-4.767667 z m 13.95884,16.125114 c 1.63583,-0.09476 3.12923,0.987721 3.36155,2.961059 0,0.825385 -1.67011,4.238619 -4.34082,2.845821 -2.06589,-1.077369 -2.36731,-3.494542 -0.66249,-5.309236 0.53556,-0.303863 1.09649,-0.466059 1.64176,-0.497644 z m -16.75711,15.150496 c 1.38537,-0.137854 2.98364,0.82714 3.44888,3.645772 -0.29425,2.123558 -2.29759,3.417764 -4.22455,2.606043 -2.4076,-1.044268 -2.14862,-3.847993 -1.19734,-4.97489 0.38752,-0.714682 1.14178,-1.194212 1.97301,-1.276925 z m 23.79958,30.255518 c 0.80736,-0.03476 1.66123,0.347643 2.37143,1.15652 2.69526,3.06974 -0.64474,5.81152 -3.03703,4.77645 -1.79962,-0.77864 -2.45829,-2.89479 -1.4273,-4.58577 0.52466,-0.86049 1.28553,-1.312438 2.0929,-1.3472 z m -9.76013,26.5684 c 1.56713,-0.0781 3.1688,0.88273 3.1688,3.34605 0,3.92607 -4.13601,3.4353 -5.56452,1.12397 -1.57695,-2.55154 0.38084,-4.36957 2.39572,-4.47002 z m -22.87251,13.26121 c 3.37941,-0.17034 3.77545,4.26401 1.66863,5.7397 -1.30618,0.71848 -2.77615,0.55589 -3.8318,-0.46819 -2.04993,-2.04993 -0.37089,-5.14368 2.16317,-5.27151 z"
        /></g></g><g
     id="g7"
     transform="translate(320.58018,-8.197343)"><path
       id="path29-0-7-6"
       style="fill:none;stroke:currentColor;stroke-width:5;stroke-linecap:round;stroke-linejoin:round;stroke-miterlimit:5.2;stroke-dasharray:none;stroke-opacity:1"
       d="m 115.76523,-68.995196 c 0,-3.148387 -2.55227,-5.70066 -5.70066,-5.700659 -3.14839,-1e-6 -5.70066,2.552272 -5.70066,5.700659 0,3.148387 2.55227,5.70066 5.70066,5.700659 3.14839,10e-7 5.70066,-2.552272 5.70066,-5.700659 z m -6.93601,-25.852514 c 0,-3.148388 -2.55227,-5.70066 -5.70066,-5.70066 -3.148386,0 -5.700657,2.552274 -5.700656,5.70066 0,3.148386 2.55227,5.700657 5.700656,5.700659 3.14839,1e-6 5.70066,-2.552272 5.70066,-5.700659 z m -22.865866,-15.13808 c 1e-6,3.14839 -2.552272,5.70066 -5.700659,5.70066 -3.148387,0 -5.700659,-2.55227 -5.700658,-5.70066 -10e-7,-3.14839 2.552271,-5.70066 5.700658,-5.70066 3.148387,0 5.70066,2.55227 5.700659,5.70066 z m 9.151314,70.410606 c 0,-3.148387 -2.552272,-5.700659 -5.700659,-5.700659 -3.148387,0 -5.700659,2.552272 -5.700659,5.700659 0,3.148387 2.552272,5.700659 5.700659,5.700659 3.148387,0 5.700659,-2.552272 5.700659,-5.700659 z m 2.547165,31.8897735 c 0,-3.1483865 -2.552272,-5.7006585 -5.700659,-5.7006585 -3.148387,0 -5.700659,2.552272 -5.700659,5.7006585 0,3.148387 2.552272,5.7006589 5.700659,5.7006588 3.148387,10e-8 5.700659,-2.5522718 5.700659,-5.7006588 z M 111.61372,-25.082006 c 0,-3.148387 -2.55227,-5.70066 -5.70066,-5.700659 -3.14839,-10e-7 -5.70066,2.552272 -5.70066,5.700659 0,3.148387 2.55227,5.700659 5.70066,5.700658 3.14839,10e-7 5.70066,-2.552271 5.70066,-5.700658 z M 86.260515,-7.6854105 45.550584,-7.9105835 C 15.330168,-8.8013114 2.5130963,-40.039459 2.8143164,-58.918 3.0617209,-74.423705 8.2323866,-109.78932 54.999999,-110 l 19.562038,0.0142 M 92.999999,-69 c 2.730755,0.02743 4.13515,-0.0158 11.363911,0.0048 M 65.999999,-110 c 0,8 -9.765321,7.54286 -15.719805,8 -22.947597,1.67346 -37.187268,21.911135 -37.190279,43.063057 -0.0027,19.129954 10.72085,35.489709 26.329901,40.7396 13.133179,4.417166 28.503063,3.540373 39.580183,0.197343 8.061766,-2.433009 11.648415,-7.225669 21.212401,-7.08201 M 69.999999,-16 c -21,1 -48.376178,-12.441837 -47.06842,-42.91758 C 23.513053,-72.468134 34.512993,-95.162596 66.999999,-95 l 30.427905,0.15229 M 85.398636,-35.528667 C 68.988727,-13.766071 31.255337,-31.596121 33.307318,-58.91758 34.533232,-75.240224 50.01478,-84.999999 64.999999,-85 c 10,0 20,5 28,16"
       transform="scale(1,-1)" /></g></svg>
