<svg
        width="120"
        height="120"
        color="#ffffff"
        viewBox="-2 0 125 118"
        xmlns="http://www.w3.org/2000/svg"
>
    <g transform="translate(-52.930204,-32.930289)">
        <path
            fill="currentColor"
            fill-rule="nonzero"
            d="m 144.76532,32.93029 c -1.1296,7.57e-4 -2.26727,0.216024 -3.19567,0.665592 -3.47874,1.684583 -3.27089,4.279797 -4.85655,4.335136 -13.20606,0.460871 -39.59972,-0.678535 -45.978587,0.916223 -22.275769,5.569086 -35.772144,25.345191 -37.600803,47.037031 -1.197869,14.209318 2.912926,29.240668 11.788425,41.639208 5.883172,8.21844 15.501172,14.81311 25.915731,16.86667 14.973324,2.95249 29.775834,0.7806 34.659904,0.72657 1.50572,3.2073 4.05301,5.68858 7.68842,5.64824 5.83606,-0.3381 9.58953,-6.35658 7.25537,-11.6334 -1.73827,-3.92965 -6.54401,-6.06294 -10.0614,-4.46639 -2.82322,1.28137 -4.4884,3.43137 -5.05241,5.4777 -2.28998,0.0123 -2.63243,0.16819 -4.07882,0.25011 -0.11356,-0.2086 -0.81664,-7.10426 -9.74152,-7.31015 -8.28229,-0.19107 -14.308012,-0.28137 -20.032684,-2.61593 -4.057222,-1.65457 -9.7457,-6.0732 -12.789102,-9.91197 -2.202638,-2.77828 -9.678056,-13.25359 -10.571749,-26.129599 -0.663492,-4.56901 0.03641,-16.680903 6.912067,-26.987443 8.821176,-13.222845 19.903539,-14.34513 19.91555,-14.333119 0.709599,0.709602 -17.504538,6.43044 -21.178036,28.550712 -2.824075,15.551661 0.02566,48.460909 39.695764,48.513319 0.64468,-0.0565 33.34126,0.69419 35.21749,0.59014 0.39398,8.02971 14.86624,9.6708 15.45436,-1.04541 0.36868,-3.67736 -2.36538,-6.98079 -5.66322,-8.37313 -4.24129,-1.44513 -7.84593,1.08135 -9.63973,4.59868 -2.41774,-0.0248 -5.66674,-0.10184 -6.63218,-0.0986 l 8.57315,-7.41206 c 1.25845,-1.32978 9.1723,-9.34826 10.00766,-9.83971 2.65906,2.09796 6.93949,2.00121 8.65374,1.00252 9.80619,-5.7128 2.19651,-15.137574 -3.22306,-15.137574 -2.47982,0 -6.08982,1.82765 -7.49309,4.335136 -0.43094,0.769999 -12.21255,0.08245 -14.4017,0.806669 -1.23873,0.409799 -5.75598,9.928649 -14.21826,13.772289 -9.73133,4.42004 -23.96408,1.45826 -25.87232,0.60978 C 98.729204,111.53519 89.327275,104.855 88.613713,91.968537 88.741752,76.788961 96.206621,65.169604 111.65158,64.22346 c 4.96167,-0.270691 10.08217,-0.02684 14.65647,2.132686 1.50089,0.757041 7.69571,5.104485 7.60729,6.02909 -0.30791,3.219517 4.26541,10.8144 12.0897,7.578349 2.95938,-1.602701 4.55873,-4.538509 4.35839,-7.999512 -0.19159,-3.309924 -1.81978,-5.680452 -4.92786,-7.174239 -4.6145,-2.217765 -8.3917,1.37529 -9.10281,2.118217 -3.67291,-3.672935 -9.23533,-7.639003 -16.39951,-8.100281 -8.68142,-0.256464 -15.1662,-0.511034 -22.874575,4.353739 -6.684257,4.440646 -10.726152,10.435004 -12.954248,19.210714 -3.795067,14.131986 2.538621,27.623307 11.18123,33.374187 7.956403,5.49861 20.051163,5.16612 26.365313,4.92942 15.97542,-0.71125 22.93696,-12.35935 26.14156,-16.47703 0.44095,-0.093 10.119,-0.28674 10.39988,-0.23771 0.54677,0.30129 -8.75937,9.54155 -9.82679,10.64327 -1.13179,1.1682 -11.80312,11.28383 -14.74056,11.21436 -6.53654,-0.15459 -22.77193,-0.24859 -24.07102,-0.53852 -2.23869,0.18462 -10.872708,-1.50503 -16.979846,-5.32009 C 78.435998,111.12815 77.638242,92.072594 79.465951,82.256478 83.301762,61.655356 101.52821,54.028073 106.51598,53.771912 c 4.51222,-0.274721 9.03117,-0.139328 13.54749,-0.08268 9.69704,0.14518 12.21893,4.984476 15.66416,6.400643 0.63392,0.260572 3.69633,0.247996 8.25738,0.190686 l 7.21093,-0.09043 c 0.86166,1.931846 2.54547,3.530984 4.38991,4.53409 3.57028,1.673156 11.37554,0.03407 11.37554,-7.841382 0,-5.712355 -4.22686,-7.347257 -5.36919,-7.684802 -7.00168,-2.068926 -9.7191,3.485096 -10.61589,5.416206 l -6.80061,-0.08113 c -3.74034,-0.04466 -7.56301,0.03441 -7.76801,-0.102836 -8.45604,-5.661054 -10.89363,-6.034558 -24.87496,-5.964493 -15.069895,-0.09134 -18.316613,0.09273 -21.698937,1.150834 -11.251045,3.519721 -18.407876,14.287987 -20.97443,18.775598 -2.453221,4.289448 -5.966101,13.019207 -6.162782,22.402432 -0.168316,8.029972 2.418197,16.416192 6.536919,24.272242 5.75734,10.98155 12.973725,16.18236 19.450687,19.10675 13.502013,6.09625 26.789113,-0.0743 27.010813,6.5945 -14.93991,0.7773 -26.366618,0.55048 -38.163565,-8.35453 C 62.384731,120.98006 46.89474,88.306405 70.625146,57.507601 79.187014,46.941066 90.623858,44.290302 95.982255,43.842802 c 0.888105,0.0859 35.274515,-0.207874 41.267245,-0.321427 3.13314,6.098627 8.31749,5.714 10.60349,4.683951 5.89076,-2.654289 6.64471,-11.653405 0.0605,-14.652852 -0.89674,-0.409128 -2.01851,-0.622941 -3.14813,-0.622184 z m -0.0176,5.056022 c 2.28843,0.02535 4.2473,2.919442 1.98645,4.93975 -1.21343,1.084288 -2.6837,1.018915 -3.8747,-0.172083 -2.1131,-2.113094 -0.0537,-4.789077 1.88825,-4.767667 z m 13.95884,16.125114 c 1.63583,-0.09476 3.12923,0.987721 3.36155,2.961059 0,0.825385 -1.67011,4.238619 -4.34082,2.845821 -2.06589,-1.077369 -2.36731,-3.494542 -0.66249,-5.309236 0.53556,-0.303863 1.09649,-0.466059 1.64176,-0.497644 z m -16.75711,15.150496 c 1.38537,-0.137854 2.98364,0.82714 3.44888,3.645772 -0.29425,2.123558 -2.29759,3.417764 -4.22455,2.606043 -2.4076,-1.044268 -2.14862,-3.847993 -1.19734,-4.97489 0.38752,-0.714682 1.14178,-1.194212 1.97301,-1.276925 z m 23.79958,30.255518 c 0.80736,-0.03476 1.66123,0.347643 2.37143,1.15652 2.69526,3.06974 -0.64474,5.81152 -3.03703,4.77645 -1.79962,-0.77864 -2.45829,-2.89479 -1.4273,-4.58577 0.52466,-0.86049 1.28553,-1.312438 2.0929,-1.3472 z m -9.76013,26.5684 c 1.56713,-0.0781 3.1688,0.88273 3.1688,3.34605 0,3.92607 -4.13601,3.4353 -5.56452,1.12397 -1.57695,-2.55154 0.38084,-4.36957 2.39572,-4.47002 z m -22.87251,13.26121 c 3.37941,-0.17034 3.77545,4.26401 1.66863,5.7397 -1.30618,0.71848 -2.77615,0.55589 -3.8318,-0.46819 -2.04993,-2.04993 -0.37089,-5.14368 2.16317,-5.27151 z"/>
    </g>
</svg>
